<?xml version="1.0" standalone="no"?><!DOCTYPE svg PUBLIC "-//W3C//DTD SVG 1.1//EN" "http://www.w3.org/Graphics/SVG/1.1/DTD/svg11.dtd"><svg t="1576593763240" class="icon" viewBox="0 0 1024 1024" version="1.1" xmlns="http://www.w3.org/2000/svg" p-id="3202" data-spm-anchor-id="a313x.7781069.0.i1" width="24" height="24" xmlns:xlink="http://www.w3.org/1999/xlink"><defs><style type="text/css"></style></defs><path d="M575.069091 739.141818c-60.043636 0-120.32-16.989091-172.916364-51.898182-18.152727-12.334545-34.210909-25.367273-48.872727-40.029091-14.661818-14.661818-27.694545-30.487273-39.796364-48.64-82.152727-124.043636-65.396364-290.443636 39.796364-395.636363a23.179636 23.179636 0 1 1 32.814545 32.814545c-89.6 89.6-104.029091 231.330909-33.978181 336.756364 10.472727 15.36 21.643636 29.090909 33.978181 41.658182 12.567273 12.567273 26.298182 23.738182 41.89091 34.210909 105.425455 69.818182 247.156364 55.389091 336.756363-34.210909 104.261818-104.261818 104.261818-274.152727 0-378.414546-64.232727-64.232727-155.694545-91.229091-244.829091-72.610909-12.8 2.56-24.901818-5.352727-27.694545-17.92-2.56-12.567273 5.352727-24.901818 17.92-27.694545 104.494545-22.109091 212.014545 9.774545 287.418182 85.178182 122.414545 122.414545 122.414545 321.861818 0 444.276363-60.509091 60.974545-141.265455 92.16-222.487273 92.16z" fill="#2c2c2c" p-id="3203"></path><path d="M155.927273 928.116364c-19.781818 0-39.563636-7.447273-54.458182-22.574546l-6.283636-6.283636a77.125818 77.125818 0 0 1 0-108.916364l221.090909-221.090909c4.887273-4.887273 11.869091-7.214545 18.618181-6.749091 6.981818 0.698182 13.265455 4.421818 16.989091 10.24 10.472727 15.592727 21.643636 29.323636 34.210909 41.658182 12.567273 12.567273 26.298182 23.738182 41.89091 34.210909 5.818182 3.956364 9.541818 10.24 10.24 16.989091 0.698182 6.981818-1.861818 13.730909-6.749091 18.618182l-221.090909 221.090909c-15.127273 15.36-34.676364 22.807273-54.458182 22.807273z m174.08-306.734546L128 823.389091a30.487273 30.487273 0 0 0 0 43.054545l6.283636 6.283637c11.869091 11.869091 31.185455 11.869091 43.054546 0l202.007273-202.007273c-9.309091-7.447273-17.92-15.127273-26.065455-23.272727-8.145455-8.378182-15.825455-16.989091-23.272727-26.065455z" fill="#2c2c2c" p-id="3204"></path></svg>